<svg width="150" height="150" viewBox="0 0 150 150" fill="none" xmlns="http://www.w3.org/2000/svg">
<rect width="150" height="150" rx="75" fill="#1E1E1E"/>
<path d="M36.832 110V39.92H58.528C62.688 39.92 66.336 40.784 69.472 42.512C72.608 44.176 75.04 46.512 76.768 49.52C78.496 52.528 79.36 56.048 79.36 60.08C79.36 64.816 78.112 68.88 75.616 72.272C73.184 75.664 69.856 78 65.632 79.28L80.32 110H70.144L56.704 80.24H45.472V110H36.832ZM45.472 72.464H58.528C62.112 72.464 64.992 71.344 67.168 69.104C69.344 66.8 70.432 63.792 70.432 60.08C70.432 56.304 69.344 53.296 67.168 51.056C64.992 48.816 62.112 47.696 58.528 47.696H45.472V72.464Z" fill="white"/>
<path d="M104.763 110.96C102.331 110.96 100.379 110.256 98.9065 108.848C97.4985 107.44 96.7945 105.552 96.7945 103.184C96.7945 100.688 97.4985 98.704 98.9065 97.232C100.379 95.76 102.331 95.024 104.763 95.024C107.195 95.024 109.115 95.76 110.523 97.232C111.995 98.704 112.731 100.688 112.731 103.184C112.731 105.552 111.995 107.44 110.523 108.848C109.115 110.256 107.195 110.96 104.763 110.96Z" fill="#00FF99"/>
</svg>
